<svg width="199" height="40" viewBox="0 0 199 40" fill="none" xmlns="http://www.w3.org/2000/svg">
<path fill-rule="evenodd" clip-rule="evenodd" d="M34.1023 0.5C34.6382 0.500046 35.1334 0.786029 35.4013 1.25021L45.6176 18.952C45.8209 19.3041 45.8724 19.7237 45.7605 20.1147C45.6486 20.5056 45.3827 20.8343 45.0239 21.0255L41.2342 23.0451C41.2114 23.0572 41.1884 23.0687 41.1652 23.0796L31.868 28.024L21.7961 38.4459C21.5135 38.7383 21.1242 38.9035 20.7175 38.9035H13.6572C13.1213 38.9035 12.626 38.6175 12.3581 38.1534C12.0902 37.6892 12.0903 37.1174 12.3583 36.6533L32.8031 1.24998C33.0711 0.785851 33.5663 0.499954 34.1023 0.5ZM34.1019 5.00038L16.2559 35.9035H20.0811L29.8756 25.7687C29.9849 25.6557 30.1112 25.5605 30.2499 25.4867L39.8203 20.3969C39.8423 20.3852 39.8646 20.3741 39.8871 20.3635L42.2437 19.1077L34.1019 5.00038Z" fill="#8BAB5E"/>
<path fill-rule="evenodd" clip-rule="evenodd" d="M25.1105 18.85C25.4394 19.3267 25.4644 19.9502 25.1748 20.4517L16.2535 35.9035H21.5C22.3284 35.9035 23 36.575 23 37.4035C23 38.2319 22.3284 38.9035 21.5 38.9035H2C1.44311 38.9035 0.93206 38.5949 0.672664 38.1021C0.413268 37.6094 0.44823 37.0134 0.763469 36.5543L11.7034 20.6228C11.9354 20.2849 12.2956 20.0567 12.7002 19.9912L23.6361 18.221C24.2078 18.1284 24.7817 18.3733 25.1105 18.85ZM12.7893 35.9035L20.9974 21.6872L13.8132 22.8501L4.84963 35.9035H12.7893Z" fill="#7C9A53"/>
<path fill-rule="evenodd" clip-rule="evenodd" d="M52.699 13.8423C53.4085 13.488 54.2713 13.7473 54.668 14.4341L67.5007 36.6533C67.8437 37.2472 67.7402 37.9982 67.2493 38.4772C66.7583 38.9561 66.0051 39.0411 65.4198 38.6835L39.7502 23.0013C39.2908 22.7207 39.0171 22.2153 39.0329 21.6772C39.0487 21.1391 39.3517 20.6507 39.8268 20.3975L43.6165 18.378C43.6282 18.3717 43.64 18.3657 43.6519 18.3597L52.699 13.8423ZM45.0098 21.0349L43.5549 21.8102L61.9564 33.0521L52.7762 17.157L45.0098 21.0349Z" fill="#A8C481"/>
<path fill-rule="evenodd" clip-rule="evenodd" d="M39.8164 20.3968C40.0333 20.2815 40.2752 20.2212 40.5208 20.2212H40.5249C40.8008 20.2212 41.0714 20.2973 41.3069 20.4412L66.9764 36.1234C67.5499 36.4737 67.8204 37.1627 67.6384 37.8096C67.4564 38.4565 66.8664 38.9034 66.1944 38.9034H34.0983C33.4344 38.9034 32.8495 38.467 32.6604 37.8307L29.5125 27.2383C29.3092 26.5542 29.616 25.8217 30.2461 25.4866L39.8164 20.3968ZM40.4715 23.4463L32.7376 27.5594L35.2173 35.9034H60.8619L40.4715 23.4463Z" fill="#8BAB5E"/>
<path fill-rule="evenodd" clip-rule="evenodd" d="M31.3088 25.3542C31.8268 25.4808 32.2386 25.8729 32.3905 26.384L35.5384 36.9764C35.6732 37.4303 35.5859 37.9212 35.3028 38.3007C35.0197 38.6802 34.574 38.9037 34.1005 38.9037H20.7159C20.1138 38.9037 19.5701 38.5438 19.335 37.9896C19.0999 37.4354 19.2189 36.7943 19.6372 36.3613L29.874 25.7689C30.2446 25.3855 30.7908 25.2276 31.3088 25.3542ZM24.2515 35.9037H32.0899L30.2464 29.7005L24.2515 35.9037Z" fill="#7C9A53"/>
<path d="M95.7846 39.2005C93.6476 39.2005 91.5782 38.8759 89.5764 38.2267C87.6017 37.5504 86.0463 36.6848 84.9102 35.6298L86.4115 32.4648C87.4935 33.4387 88.8731 34.2367 90.5502 34.8588C92.2544 35.4539 93.9992 35.7515 95.7846 35.7515C98.138 35.7515 99.8963 35.3593 101.059 34.5748C102.223 33.7633 102.804 32.6948 102.804 31.3693C102.804 30.3955 102.48 29.611 101.83 29.0159C101.208 28.3937 100.424 27.9203 99.477 27.5957C98.5573 27.2711 97.2453 26.9059 95.5411 26.5001C93.4041 25.9862 91.6728 25.4722 90.3474 24.9582C89.0489 24.4443 87.9263 23.6598 86.9795 22.6048C86.0598 21.5228 85.6 20.0756 85.6 18.2632C85.6 16.7483 85.9922 15.3823 86.7767 14.165C87.5882 12.9477 88.8055 11.9739 90.4285 11.2435C92.0516 10.5131 94.0668 10.1479 96.4744 10.1479C98.1515 10.1479 99.8016 10.3644 101.425 10.7972C103.048 11.23 104.441 11.8521 105.604 12.6637L104.265 15.9098C103.075 15.1523 101.803 14.5843 100.451 14.2056C99.0983 13.7998 97.7728 13.5969 96.4744 13.5969C94.175 13.5969 92.4438 14.0162 91.2806 14.8548C90.1445 15.6934 89.5764 16.7754 89.5764 18.1009C89.5764 19.0747 89.901 19.8727 90.5502 20.4949C91.1995 21.09 91.9975 21.5634 92.9442 21.915C93.9181 22.2396 95.23 22.5913 96.8801 22.97C99.0171 23.484 100.735 23.9979 102.033 24.5119C103.332 25.0259 104.441 25.8103 105.361 26.8653C106.307 27.9203 106.781 29.3405 106.781 31.1258C106.781 32.6136 106.375 33.9797 105.563 35.224C104.752 36.4413 103.521 37.4151 101.871 38.1455C100.221 38.8488 98.1921 39.2005 95.7846 39.2005Z" fill="url(#paint0_radial)"/>
<path d="M112.141 17.3705H116.036V38.8759H112.141V17.3705Z" fill="url(#paint1_radial)"/>
<path d="M142.909 28.2449C142.909 28.5425 142.882 28.9347 142.828 29.4216H125.38C125.624 31.3152 126.449 32.8435 127.856 34.0067C129.289 35.1429 131.061 35.7109 133.171 35.7109C135.741 35.7109 137.81 34.8453 139.379 33.1141L141.53 35.6298C140.556 36.7659 139.339 37.6315 137.878 38.2267C136.444 38.8218 134.835 39.1193 133.049 39.1193C130.777 39.1193 128.762 38.6595 127.003 37.7397C125.245 36.793 123.879 35.481 122.905 33.8038C121.959 32.1267 121.485 30.2331 121.485 28.1232C121.485 26.0403 121.945 24.1602 122.865 22.4831C123.811 20.806 125.096 19.5075 126.719 18.5878C128.37 17.641 130.223 17.1676 132.278 17.1676C134.334 17.1676 136.16 17.641 137.756 18.5878C139.379 19.5075 140.637 20.806 141.53 22.4831C142.449 24.1602 142.909 26.0809 142.909 28.2449ZM132.278 20.4543C130.412 20.4543 128.843 21.0224 127.572 22.1585C126.327 23.2946 125.597 24.7824 125.38 26.6219H139.176C138.96 24.8095 138.216 23.3352 136.945 22.1991C135.7 21.0359 134.145 20.4543 132.278 20.4543Z" fill="url(#paint2_radial)"/>
<path d="M152.051 20.9818C152.728 19.7374 153.728 18.7907 155.054 18.1415C156.379 17.4922 157.989 17.1676 159.883 17.1676V20.9412C159.666 20.9142 159.369 20.9006 158.99 20.9006C156.88 20.9006 155.216 21.5363 153.999 22.8077C152.809 24.052 152.214 25.8374 152.214 28.1638V38.8759H148.318V17.3705H152.051V20.9818Z" fill="url(#paint3_radial)"/>
<path d="M168.417 20.9818C169.093 19.7374 170.094 18.7907 171.419 18.1415C172.745 17.4922 174.354 17.1676 176.248 17.1676V20.9412C176.031 20.9142 175.734 20.9006 175.355 20.9006C173.245 20.9006 171.581 21.5363 170.364 22.8077C169.174 24.052 168.579 25.8374 168.579 28.1638V38.8759H164.684V17.3705H168.417V20.9818Z" fill="url(#paint4_radial)"/>
<path d="M188.84 17.1676C191.816 17.1676 194.088 17.898 195.657 19.3587C197.253 20.8195 198.051 22.9971 198.051 25.8915V38.8759H194.359V36.0355C193.709 37.0364 192.776 37.8074 191.559 38.3484C190.369 38.8623 188.948 39.1193 187.298 39.1193C184.891 39.1193 182.957 38.5377 181.496 37.3745C180.062 36.2114 179.345 34.683 179.345 32.7894C179.345 30.8959 180.035 29.381 181.415 28.2449C182.794 27.0817 184.986 26.5001 187.988 26.5001H194.156V25.7292C194.156 24.052 193.669 22.7671 192.695 21.8745C191.721 20.9818 190.287 20.5354 188.394 20.5354C187.123 20.5354 185.878 20.7519 184.661 21.1847C183.444 21.5904 182.416 22.145 181.577 22.8483L179.954 19.9268C181.063 19.0341 182.389 18.3579 183.931 17.898C185.472 17.4111 187.109 17.1676 188.84 17.1676ZM187.948 36.1167C189.435 36.1167 190.72 35.7921 191.802 35.1429C192.884 34.4666 193.669 33.5198 194.156 32.3025V29.2999H188.15C184.85 29.2999 183.2 30.409 183.2 32.6271C183.2 33.7092 183.619 34.5613 184.458 35.1834C185.297 35.8056 186.46 36.1167 187.948 36.1167Z" fill="url(#paint5_radial)"/>
<path d="M114.087 13.2317C113.329 13.2317 112.694 12.9882 112.18 12.5013C111.693 12.0144 111.449 11.4193 111.449 10.716C111.449 10.0126 111.693 9.41753 112.18 8.93061C112.694 8.41665 113.329 8.15967 114.087 8.15967C114.844 8.15967 115.466 8.40312 115.953 8.89004C116.467 9.3499 116.724 9.93149 116.724 10.6348C116.724 11.3652 116.467 11.9874 115.953 12.5013C115.466 12.9882 114.844 13.2317 114.087 13.2317Z" fill="url(#paint6_radial)"/>
<defs>
<radialGradient id="paint0_radial" cx="0" cy="0" r="1" gradientUnits="userSpaceOnUse" gradientTransform="translate(341 107.5) rotate(-157.79) scale(494.705 586.122)">
<stop offset="0.0328902" stop-color="#7A9750"/>
<stop offset="0.311433" stop-color="#94B16B"/>
<stop offset="0.54929" stop-color="#B2CA90"/>
<stop offset="1" stop-color="#B2CA90"/>
</radialGradient>
<radialGradient id="paint1_radial" cx="0" cy="0" r="1" gradientUnits="userSpaceOnUse" gradientTransform="translate(341 107.5) rotate(-157.79) scale(494.705 586.122)">
<stop offset="0.0328902" stop-color="#7A9750"/>
<stop offset="0.311433" stop-color="#94B16B"/>
<stop offset="0.54929" stop-color="#B2CA90"/>
<stop offset="1" stop-color="#B2CA90"/>
</radialGradient>
<radialGradient id="paint2_radial" cx="0" cy="0" r="1" gradientUnits="userSpaceOnUse" gradientTransform="translate(341 107.5) rotate(-157.79) scale(494.705 586.122)">
<stop offset="0.0328902" stop-color="#7A9750"/>
<stop offset="0.311433" stop-color="#94B16B"/>
<stop offset="0.54929" stop-color="#B2CA90"/>
<stop offset="1" stop-color="#B2CA90"/>
</radialGradient>
<radialGradient id="paint3_radial" cx="0" cy="0" r="1" gradientUnits="userSpaceOnUse" gradientTransform="translate(341 107.5) rotate(-157.79) scale(494.705 586.122)">
<stop offset="0.0328902" stop-color="#7A9750"/>
<stop offset="0.311433" stop-color="#94B16B"/>
<stop offset="0.54929" stop-color="#B2CA90"/>
<stop offset="1" stop-color="#B2CA90"/>
</radialGradient>
<radialGradient id="paint4_radial" cx="0" cy="0" r="1" gradientUnits="userSpaceOnUse" gradientTransform="translate(341 107.5) rotate(-157.79) scale(494.705 586.122)">
<stop offset="0.0328902" stop-color="#7A9750"/>
<stop offset="0.311433" stop-color="#94B16B"/>
<stop offset="0.54929" stop-color="#B2CA90"/>
<stop offset="1" stop-color="#B2CA90"/>
</radialGradient>
<radialGradient id="paint5_radial" cx="0" cy="0" r="1" gradientUnits="userSpaceOnUse" gradientTransform="translate(341 107.5) rotate(-157.79) scale(494.705 586.122)">
<stop offset="0.0328902" stop-color="#7A9750"/>
<stop offset="0.311433" stop-color="#94B16B"/>
<stop offset="0.54929" stop-color="#B2CA90"/>
<stop offset="1" stop-color="#B2CA90"/>
</radialGradient>
<radialGradient id="paint6_radial" cx="0" cy="0" r="1" gradientUnits="userSpaceOnUse" gradientTransform="translate(341 107.5) rotate(-157.79) scale(494.705 586.122)">
<stop offset="0.0328902" stop-color="#7A9750"/>
<stop offset="0.311433" stop-color="#94B16B"/>
<stop offset="0.54929" stop-color="#B2CA90"/>
<stop offset="1" stop-color="#B2CA90"/>
</radialGradient>
</defs>
</svg>
