<svg width="198" height="39" viewBox="0 0 198 39" fill="none" xmlns="http://www.w3.org/2000/svg">
<path fill-rule="evenodd" clip-rule="evenodd" d="M33.6023 5.63887e-09C34.1382 4.63837e-05 34.6334 0.286029 34.9013 0.750208L44.4125 17.2303L52.199 13.3423C52.9085 12.988 53.7713 13.2473 54.168 13.9341L67.0007 36.1533C67.3437 36.7472 67.2402 37.4982 66.7493 37.9771C66.4562 38.2631 66.0697 38.4086 65.6812 38.4034H33.6432C33.629 38.4038 33.6148 38.404 33.6005 38.404H20.2159C20.203 38.404 20.1901 38.4038 20.1773 38.4035H13.1572L13.145 38.4035H1.5C0.943114 38.4035 0.43206 38.0949 0.172664 37.6021C-0.086732 37.1094 -0.0517704 36.5134 0.263469 36.0543L11.2034 20.1228C11.4354 19.7849 11.7956 19.5567 12.2002 19.4912L22.4373 17.8341L32.3031 0.749983C32.5711 0.285851 33.0663 -4.63611e-05 33.6023 5.63887e-09ZM29.3168 25.3284L19.58 35.4035H15.7559L33.6019 4.50038L41.7437 18.6077L39.4118 19.8504C39.3796 19.8647 39.3477 19.8802 39.3164 19.8968L29.746 24.9866C29.5791 25.0754 29.4349 25.1921 29.3168 25.3284ZM34.7194 35.4034L32.24 27.0603L39.9734 22.9475L60.3619 35.4034H34.7194ZM23.7527 35.404H31.5878L29.7451 29.2033L23.7527 35.404ZM12.2893 35.4035L20.4974 21.1872L13.3132 22.3501L4.34963 35.4035H12.2893ZM43.0549 21.3102L44.5098 20.5349L52.2762 16.657L61.4564 32.5521L43.0549 21.3102Z" fill="white"/>
<path d="M95.2846 38.7005C93.1476 38.7005 91.0782 38.3759 89.0764 37.7267C87.1017 37.0504 85.5463 36.1848 84.4102 35.1298L85.9115 31.9648C86.9935 32.9387 88.3731 33.7367 90.0502 34.3588C91.7544 34.9539 93.4992 35.2515 95.2846 35.2515C97.638 35.2515 99.3963 34.8593 100.559 34.0748C101.723 33.2633 102.304 32.1948 102.304 30.8693C102.304 29.8955 101.98 29.111 101.33 28.5159C100.708 27.8937 99.9238 27.4203 98.977 27.0957C98.0573 26.7711 96.7453 26.4059 95.0411 26.0001C92.9041 25.4862 91.1728 24.9722 89.8474 24.4582C88.5489 23.9443 87.4263 23.1598 86.4795 22.1048C85.5598 21.0228 85.1 19.5756 85.1 17.7632C85.1 16.2483 85.4922 14.8823 86.2767 13.665C87.0882 12.4477 88.3055 11.4739 89.9285 10.7435C91.5516 10.0131 93.5668 9.64795 95.9744 9.64795C97.6515 9.64795 99.3016 9.86436 100.925 10.2972C102.548 10.73 103.941 11.3521 105.104 12.1637L103.765 15.4098C102.575 14.6523 101.303 14.0843 99.9508 13.7056C98.5983 13.2998 97.2728 13.0969 95.9744 13.0969C93.675 13.0969 91.9438 13.5162 90.7806 14.3548C89.6445 15.1934 89.0764 16.2754 89.0764 17.6009C89.0764 18.5747 89.401 19.3727 90.0502 19.9949C90.6995 20.59 91.4975 21.0634 92.4442 21.415C93.4181 21.7396 94.73 22.0913 96.3801 22.47C98.5171 22.984 100.235 23.4979 101.533 24.0119C102.832 24.5259 103.941 25.3103 104.861 26.3653C105.807 27.4203 106.281 28.8405 106.281 30.6258C106.281 32.1136 105.875 33.4797 105.063 34.724C104.252 35.9413 103.021 36.9151 101.371 37.6455C99.7209 38.3488 97.6921 38.7005 95.2846 38.7005Z" fill="white"/>
<path d="M111.641 16.8705H115.536V38.3759H111.641V16.8705Z" fill="white"/>
<path d="M142.409 27.7449C142.409 28.0425 142.382 28.4347 142.328 28.9216H124.88C125.124 30.8152 125.949 32.3435 127.356 33.5067C128.789 34.6429 130.561 35.2109 132.671 35.2109C135.241 35.2109 137.31 34.3453 138.879 32.6141L141.03 35.1298C140.056 36.2659 138.839 37.1315 137.378 37.7267C135.944 38.3218 134.335 38.6193 132.549 38.6193C130.277 38.6193 128.262 38.1595 126.503 37.2397C124.745 36.293 123.379 34.981 122.405 33.3038C121.459 31.6267 120.985 29.7331 120.985 27.6232C120.985 25.5403 121.445 23.6602 122.365 21.9831C123.311 20.306 124.596 19.0075 126.219 18.0878C127.87 17.141 129.723 16.6676 131.778 16.6676C133.834 16.6676 135.66 17.141 137.256 18.0878C138.879 19.0075 140.137 20.306 141.03 21.9831C141.949 23.6602 142.409 25.5809 142.409 27.7449ZM131.778 19.9543C129.912 19.9543 128.343 20.5224 127.072 21.6585C125.827 22.7946 125.097 24.2824 124.88 26.1219H138.676C138.46 24.3095 137.716 22.8352 136.445 21.6991C135.2 20.5359 133.645 19.9543 131.778 19.9543Z" fill="white"/>
<path d="M151.551 20.4818C152.228 19.2374 153.228 18.2907 154.554 17.6415C155.879 16.9922 157.489 16.6676 159.383 16.6676V20.4412C159.166 20.4142 158.869 20.4006 158.49 20.4006C156.38 20.4006 154.716 21.0363 153.499 22.3077C152.309 23.552 151.714 25.3374 151.714 27.6638V38.3759H147.818V16.8705H151.551V20.4818Z" fill="white"/>
<path d="M167.917 20.4818C168.593 19.2374 169.594 18.2907 170.919 17.6415C172.245 16.9922 173.854 16.6676 175.748 16.6676V20.4412C175.531 20.4142 175.234 20.4006 174.855 20.4006C172.745 20.4006 171.081 21.0363 169.864 22.3077C168.674 23.552 168.079 25.3374 168.079 27.6638V38.3759H164.184V16.8705H167.917V20.4818Z" fill="white"/>
<path d="M188.34 16.6676C191.316 16.6676 193.588 17.398 195.157 18.8587C196.753 20.3195 197.551 22.4971 197.551 25.3915V38.3759H193.859V35.5355C193.209 36.5364 192.276 37.3074 191.059 37.8484C189.869 38.3623 188.448 38.6193 186.798 38.6193C184.391 38.6193 182.457 38.0377 180.996 36.8745C179.562 35.7114 178.845 34.183 178.845 32.2894C178.845 30.3959 179.535 28.881 180.915 27.7449C182.294 26.5817 184.486 26.0001 187.488 26.0001H193.656V25.2292C193.656 23.552 193.169 22.2671 192.195 21.3745C191.221 20.4818 189.787 20.0354 187.894 20.0354C186.623 20.0354 185.378 20.2519 184.161 20.6847C182.944 21.0904 181.916 21.645 181.077 22.3483L179.454 19.4268C180.563 18.5341 181.889 17.8579 183.431 17.398C184.972 16.9111 186.609 16.6676 188.34 16.6676ZM187.448 35.6167C188.935 35.6167 190.22 35.2921 191.302 34.6429C192.384 33.9666 193.169 33.0198 193.656 31.8025V28.7999H187.65C184.35 28.7999 182.7 29.909 182.7 32.1271C182.7 33.2092 183.119 34.0613 183.958 34.6834C184.797 35.3056 185.96 35.6167 187.448 35.6167Z" fill="white"/>
<path d="M113.587 12.7317C112.829 12.7317 112.194 12.4882 111.68 12.0013C111.193 11.5144 110.949 10.9193 110.949 10.216C110.949 9.51265 111.193 8.91753 111.68 8.43061C112.194 7.91665 112.829 7.65967 113.587 7.65967C114.344 7.65967 114.966 7.90312 115.453 8.39004C115.967 8.8499 116.224 9.43149 116.224 10.1348C116.224 10.8652 115.967 11.4874 115.453 12.0013C114.966 12.4882 114.344 12.7317 113.587 12.7317Z" fill="white"/>
</svg>
